<?xml version="1.0" encoding="UTF-8" standalone="no"?>
<svg
   xmlns:dc="http://purl.org/dc/elements/1.1/"
   xmlns:cc="http://creativecommons.org/ns#"
   xmlns:rdf="http://www.w3.org/1999/02/22-rdf-syntax-ns#"
   xmlns:svg="http://www.w3.org/2000/svg"
   xmlns="http://www.w3.org/2000/svg"
   xmlns:xlink="http://www.w3.org/1999/xlink"
   xmlns:sodipodi="http://sodipodi.sourceforge.net/DTD/sodipodi-0.dtd"
   xmlns:inkscape="http://www.inkscape.org/namespaces/inkscape"
   width="142.58331mm"
   height="157.83627mm"
   viewBox="0 0 142.58331 157.83627"
   version="1.1"
   id="svg8"
   inkscape:version="1.0.2 (e86c870879, 2021-01-15)"
   sodipodi:docname="logo.svg">
  <defs
     id="defs2">
    <linearGradient
       inkscape:collect="always"
       id="linearGradient977">
      <stop
         style="stop-color:#551544;stop-opacity:1"
         offset="0"
         id="stop973" />
      <stop
         style="stop-color:#ffffff;stop-opacity:1"
         offset="1"
         id="stop975" />
    </linearGradient>
    <linearGradient
       inkscape:collect="always"
       xlink:href="#linearGradient977"
       id="linearGradient979"
       x1="92.070793"
       y1="35.877811"
       x2="71.065224"
       y2="111.30789"
       gradientUnits="userSpaceOnUse" />
  </defs>
  <sodipodi:namedview
     id="base"
     pagecolor="#ffffff"
     bordercolor="#666666"
     borderopacity="1.0"
     inkscape:pageopacity="0.0"
     inkscape:pageshadow="2"
     inkscape:zoom="1.4"
     inkscape:cx="-96.885912"
     inkscape:cy="298.38982"
     inkscape:document-units="mm"
     inkscape:current-layer="layer1"
     inkscape:document-rotation="0"
     showgrid="false"
     inkscape:window-width="3436"
     inkscape:window-height="1401"
     inkscape:window-x="1920"
     inkscape:window-y="18"
     inkscape:window-maximized="1"
     fit-margin-top="0"
     fit-margin-left="0"
     fit-margin-right="0"
     fit-margin-bottom="0" />
  <metadata
     id="metadata5">
    <rdf:RDF>
      <cc:Work
         rdf:about="">
        <dc:format>image/svg+xml</dc:format>
        <dc:type
           rdf:resource="http://purl.org/dc/dcmitype/StillImage" />
        <dc:title></dc:title>
      </cc:Work>
    </rdf:RDF>
  </metadata>
  <g
     inkscape:label="Ebene 1"
     inkscape:groupmode="layer"
     id="layer1"
     transform="translate(-17.595807,-19.769822)">
    <path
       style="fill:#000000;stroke-width:0.264583"
       d="m 69.080846,177.28613 c -0.436562,-0.23667 -1.819021,-1.40451 -3.072132,-2.59519 -1.253109,-1.19069 -2.630649,-2.46254 -3.061198,-2.82635 -0.868053,-0.73348 -3.580273,-3.23514 -7.686251,-7.08955 -1.488896,-1.39767 -2.917646,-2.65221 -3.175001,-2.78786 -0.257354,-0.13565 -1.125701,-0.91552 -1.929659,-1.73305 -0.803957,-0.81753 -3.03321,-2.85563 -4.953894,-4.52912 -1.920685,-1.67349 -3.495323,-3.12629 -3.499197,-3.22844 -0.0039,-0.10215 -0.513059,-0.54135 -1.131522,-0.976 -0.618464,-0.43465 -1.779323,-1.40907 -2.579688,-2.16538 -0.800364,-0.75631 -2.110052,-1.90939 -2.910416,-2.5624 -0.800365,-0.65302 -1.871927,-1.58172 -2.38125,-2.06379 -1.276514,-1.20821 -5.109936,-4.63173 -5.907554,-5.27587 -1.077473,-0.87014 -6.51506,-5.72814 -7.892629,-7.05136 -1.400125,-1.34488 -1.625193,-2.24296 -0.905031,-3.61125 0.623964,-1.18552 1.212257,-1.48203 4.386463,-2.21079 1.67349,-0.38422 6.43599,-1.55636 10.583334,-2.60475 4.147344,-1.04839 7.768564,-1.95046 8.047151,-2.00459 0.278591,-0.0541 1.052497,-0.26433 1.719792,-0.46711 0.667298,-0.20278 2.225297,-0.63395 3.462224,-0.95815 1.236927,-0.3242 3.082396,-0.8078 4.101042,-1.07467 1.018645,-0.26687 2.804583,-0.68796 3.96875,-0.93575 2.508596,-0.53397 3.097355,-0.90755 1.441979,-0.91499 -1.03972,-0.005 -4.01464,-0.44348 -6.1512,-0.90731 -2.07354,-0.45015 -7.427733,-2.68243 -8.586941,-3.58008 -0.399714,-0.30953 -1.173129,-0.90048 -1.718694,-1.31323 -2.169292,-1.64118 -4.243552,-4.82252 -5.208082,-7.98775 -1.478328,-4.851325 -2.112405,-10.778604 -1.609556,-15.045917 0.41905,-3.55617 0.39484,-3.886161 -0.367887,-5.015048 -0.348597,-0.515943 -0.900549,-1.744075 -1.226564,-2.729185 -0.787754,-2.380334 -0.635269,-5.229 0.403842,-7.544448 0.672946,-1.499526 0.68879,-1.626495 0.297389,-2.383377 -0.227383,-0.439712 -0.672574,-1.733302 -0.989314,-2.874646 -0.490387,-1.767072 -0.57594,-2.762617 -0.57622,-6.70538 -2.46e-4,-3.420298 0.117932,-5.148741 0.452257,-6.614583 0.248925,-1.091407 0.510516,-2.266834 0.581314,-2.61206 0.113056,-0.551286 0.975209,-3.065835 2.125826,-6.200177 0.4034,-1.098883 2.315147,-4.574421 2.866173,-5.21068 0.189042,-0.218281 0.43008,-0.679675 0.535644,-1.025319 0.105563,-0.345644 0.806016,-1.298144 1.556565,-2.116667 0.750549,-0.818523 1.655654,-1.904941 2.011349,-2.414264 0.355693,-0.509323 0.889712,-1.099651 1.186709,-1.311839 0.296998,-0.212188 1.432963,-1.228791 2.524369,-2.259118 1.091406,-1.030327 2.460625,-2.160305 3.042708,-2.51106 0.582083,-0.350758 1.653646,-1.078696 2.38125,-1.617644 3.099448,-2.295814 11.022518,-5.692037 15.345834,-6.577994 5.572561,-1.141961 8.673108,-1.415558 14.12222,-1.246169 2.855799,0.08877 6.144862,0.337915 7.309029,0.553648 3.367543,0.624044 6.021171,1.244889 6.879167,1.609461 0.436562,0.185499 1.091406,0.425302 1.455208,0.532894 1.259792,0.372579 5.164159,2.044293 6.240956,2.672162 0.59487,0.346861 1.22371,0.630659 1.39743,0.630659 0.17371,0 1.18588,0.654843 2.24926,1.455208 1.06338,0.800365 2.03265,1.455208 2.15392,1.455208 0.80953,0 8.16028,7.384669 9.42827,9.471774 0.32722,0.538597 0.68532,1.042609 0.79578,1.120029 0.18112,0.126937 0.98533,1.508691 3.15193,5.415489 1.1727,2.11459 3.05979,8.176932 3.55634,11.424844 0.44162,2.888612 0.43332,8.105177 -0.0199,12.519948 -0.14867,1.448089 -0.14297,1.462395 1.16532,2.923982 1.40052,1.564621 4.8171,6.528189 5.37841,7.813683 0.18533,0.424439 0.97438,1.714145 1.75344,2.866012 0.77906,1.151866 1.67201,2.640147 1.98433,3.307291 0.31233,0.667145 1.06301,1.927366 1.66818,2.800491 0.60517,0.873125 1.42764,2.242343 1.82772,3.042708 0.40007,0.800365 0.88017,1.544418 1.06688,1.65345 0.18672,0.109035 0.81939,0.958125 1.40595,1.886871 1.30641,2.068558 1.96781,2.361878 4.79236,2.125388 1.89614,-0.15876 3.08604,-0.560023 5.93731,-2.002185 1.70618,-0.862978 3.30342,-1.317355 4.32823,-1.231281 0.80129,0.0673 1.10645,0.279379 1.7722,1.231625 0.73546,1.051952 0.80166,1.323475 0.77406,3.175001 -0.0374,2.510965 -0.47016,4.649155 -1.42713,7.051745 -0.40573,1.01865 -0.98708,2.49093 -1.29189,3.27174 -1.32493,3.39403 -6.77419,10.30074 -10.08309,12.7799 -2.72398,2.04092 -7.23601,4.55467 -8.60699,4.79515 -0.28663,0.0503 -1.94989,0.52958 -3.69614,1.06511 -1.74625,0.53554 -3.97867,1.21889 -4.96093,1.51856 -0.98227,0.29967 -1.78594,0.6426 -1.78594,0.76208 0,0.22707 0.42,0.40484 3.04271,1.28787 0.87312,0.29397 2.48047,0.90389 3.57187,1.35537 2.14468,0.88718 2.14899,0.88902 4.89479,2.0892 1.01865,0.44525 2.56646,1.06478 3.43959,1.37673 2.16855,0.7748 6.55779,2.6518 6.86594,2.93615 0.13824,0.12756 0.41484,0.23194 0.61466,0.23194 0.19981,0 1.93217,0.60735 3.84968,1.34967 1.91751,0.74232 4.14123,1.59655 4.94159,1.89829 3.29525,1.2423 4.01126,2.17184 3.50789,4.55402 l -0.22294,1.05512 -4.88362,1.66172 c -2.68598,0.91395 -5.30033,1.78767 -5.80965,1.94161 -2.41565,0.73009 -5.19017,1.64705 -8.33438,2.75443 -1.89177,0.66628 -4.86833,1.66384 -6.61458,2.21681 -1.74625,0.55297 -3.53219,1.18835 -3.96875,1.41198 -0.43656,0.22362 -1.42478,0.54014 -2.19603,0.70338 -0.77126,0.16324 -1.73863,0.47073 -2.14973,0.68332 -0.41108,0.21258 -1.56599,0.61605 -2.56646,0.89661 -1.00047,0.28055 -3.72403,1.18958 -6.05237,2.02006 -2.32833,0.83048 -5.3256,1.84853 -6.66059,2.26233 -1.335,0.4138 -3.00187,0.98606 -3.70417,1.2717 -2.15666,0.87714 -3.60553,1.40613 -4.84878,1.77031 -0.65484,0.19182 -2.738437,0.89516 -4.630208,1.56296 -1.89177,0.66781 -4.570677,1.58081 -5.953125,2.0289 -1.382448,0.44808 -2.871478,0.98526 -3.308956,1.19372 -0.437475,0.20846 -1.389975,0.54517 -2.116666,0.74823 -0.726689,0.20307 -2.273753,0.73052 -3.437918,1.17211 -9.186987,3.48476 -11.957545,4.16996 -13.493751,3.33717 z"
       id="path873" />
    <path
       id="path917"
       style="fill:url(#linearGradient979);fill-opacity:1;stroke-width:0.264583"
       d="m 120.6746,126.60058 c 1.66958,-0.44471 4.95879,-2.53939 5.69461,-3.62652 0.36046,-0.53257 0.84677,-1.16309 1.08068,-1.40115 0.2339,-0.23807 0.86485,-1.2535 1.4021,-2.25652 0.89026,-1.66205 1.00068,-2.10505 1.24604,-4.99867 0.14807,-1.74625 0.20143,-3.61454 0.11859,-4.15175 -0.27571,-1.78784 1.16844,-5.77013 2.0925,-5.77013 0.88323,0 1.71517,3.85566 1.9125,8.86354 0.11874,3.01349 -0.0432,4.32614 -0.85756,6.95107 -0.17604,0.56741 -0.14391,0.58524 0.57349,0.31846 0.41798,-0.15543 1.71247,-0.72356 2.87663,-1.26252 2.01844,-0.93445 2.54013,-1.2739 4.0475,-2.63357 0.36299,-0.32742 0.73189,-0.59546 0.81978,-0.59563 0.26655,-5.3e-4 1.44505,-1.13406 2.20033,-2.11635 0.39162,-0.50932 1.13928,-1.40229 1.66147,-1.98437 2.08484,-2.32397 5.85825,-9.57795 5.28204,-10.15416 -0.0806,-0.0806 -0.88477,0.0644 -1.78713,0.32223 -2.94305,0.84077 -4.89811,1.03771 -6.77884,0.68284 -2.24455,-0.42352 -4.72659,-1.43721 -5.67426,-2.31743 -1.45332,-1.349885 -6.01129,-7.92396 -6.51472,-9.396348 -0.15664,-0.458128 -0.63198,-1.309211 -1.05631,-1.891294 -0.42433,-0.582084 -1.61113,-2.487084 -2.63733,-4.233334 -2.51402,-4.278032 -4.587,-7.408333 -4.90602,-7.408333 -0.14423,0 -0.50142,0.597979 -0.79375,1.328846 -0.29233,0.730866 -0.8887,1.883836 -1.32526,2.562159 -0.43656,0.678323 -1.15094,1.847749 -1.5875,2.598729 -1.94656,3.348488 -7.86046,9.619518 -11.09872,11.768953 -1.73415,1.151067 -4.84961,2.706097 -6.33651,3.162777 -0.976006,0.29976 -1.09255,0.4564 -2.18281,2.933885 -0.633463,1.43948 -1.151753,2.7461 -1.151753,2.90361 0,0.15752 0.351042,0.83993 0.780095,1.51647 0.777918,1.22665 2.149515,2.16424 3.440268,2.35168 0.55126,0.08 0.67391,-0.0413 0.84102,-0.83232 0.24242,-1.14746 0.94514,-2.69449 1.89051,-4.16193 0.39656,-0.61558 0.72102,-1.23142 0.72102,-1.36855 0,-0.32481 2.49634,-2.506355 3.40047,-2.971665 0.38532,-0.1983 0.76011,-0.42691 0.83287,-0.508 0.0728,-0.0811 0.67956,-0.40073 1.34845,-0.71029 3.18722,-1.475054 8.46844,-0.71592 9.46355,1.3603 0.46158,0.963055 0.0151,3.294975 -0.76619,4.002065 -0.48906,0.44259 -0.56996,0.44244 -1.73742,-0.003 -3.34458,-1.27731 -7.6857,1.1313 -8.19815,4.54862 -0.23673,1.57862 0.41391,2.91519 1.74184,3.57817 0.77196,0.38541 1.38829,0.43811 3.70417,0.31671 2.49104,-0.13057 2.86698,-0.0897 3.63802,0.39583 0.71365,0.44937 0.8599,0.70537 0.8599,1.50515 0,0.84087 -0.24448,1.21187 -1.91823,2.91087 -1.05503,1.07095 -1.99566,2.21662 -2.0903,2.54593 -0.0946,0.32931 -0.18393,1.67932 -0.19843,3.00002 -0.0245,2.22752 0.0208,2.44562 0.62599,3.01414 0.62403,0.58626 3.01155,1.57088 3.84555,1.58593 0.21828,0.004 0.87313,-0.11969 1.45521,-0.27473 z m -11.90625,-5.86672 c 0,-2.94396 0.19967,-3.53952 1.37509,-4.10137 1.51188,-0.72268 1.32934,-0.99186 -0.6726,-0.99186 -1.87975,0 -2.68687,0.34843 -2.68687,1.15991 0,0.2385 -0.41005,1.0276 -0.91123,1.75354 -0.50118,0.72594 -1.09481,1.63816 -1.3192,2.02716 l -0.40796,0.70727 1.64992,0.55356 c 0.90746,0.30445 1.82852,0.66897 2.0468,0.81003 0.80044,0.51727 0.92605,0.25709 0.92605,-1.91824 z m -7.70822,-2.64583 c 1.11026,-1.07199 2.54884,-2.97306 2.54884,-3.36826 0,-0.10205 -0.68461,-0.33486 -1.52135,-0.51735 -0.83675,-0.18249 -2.325029,-0.72921 -3.307295,-1.21495 -0.982266,-0.48573 -1.785938,-0.79857 -1.785938,-0.69521 0,0.10335 0.204206,0.48231 0.453787,0.84211 0.479573,0.69135 0.571164,0.81009 1.403202,1.81914 0.568799,0.68981 0.693174,2.19277 0.272931,3.2981 -0.239297,0.6294 -0.09288,0.86776 0.577414,0.94001 0.106584,0.0115 0.717869,-0.48513 1.358409,-1.10359 z m -7.143992,-0.92604 c 0.270232,-0.94497 0.46782,-8.9337 0.211761,-8.56187 -0.139311,0.20229 -0.330096,1.27386 -0.423971,2.38125 -0.09387,1.10739 -0.36395,2.94684 -0.600172,4.08766 -0.368412,1.77924 -0.376286,2.10792 -0.05537,2.31105 0.544642,0.34476 0.719349,0.30085 0.867752,-0.21809 z m -6.446751,-4.31734 c 0,-1.92103 -0.04012,-2.08184 -0.463021,-1.85581 -0.254661,0.13612 -1.27514,0.61107 -2.267733,1.05546 -1.161936,0.52021 -1.738032,0.91587 -1.61749,1.11092 0.245266,0.39684 3.883649,2.07986 4.145904,1.91778 0.111287,-0.0688 0.20234,-1.07154 0.20234,-2.22835 z m -16.404166,-1.53676 c 1.67349,-0.30394 3.57849,-0.69274 4.233334,-0.864 2.00207,-0.52358 6.827853,-2.99285 9.260416,-4.73838 0.800364,-0.57432 1.594114,-1.04441 1.763889,-1.04465 0.169773,-2.4e-4 0.348367,-0.0996 0.396875,-0.22072 0.04851,-0.12116 1.098278,-1.08824 2.332826,-2.14906 2.536307,-2.17939 3.235016,-3.017035 4.092835,-4.906685 1.147723,-2.528267 1.243232,-2.904658 1.507746,-5.941794 0.348457,-4.00095 0.539023,-4.382313 2.178214,-4.359066 1.051666,0.01492 1.386814,0.151606 2.012083,0.820642 0.772916,0.827019 1.321881,2.316345 1.324471,3.593235 8e-4,0.400182 0.0776,0.727604 0.17065,0.727604 0.0931,0 0.74968,-0.357187 1.45918,-0.79375 0.70951,-0.436562 1.40729,-0.79375 1.55062,-0.79375 0.14334,0 0.26061,-0.09339 0.26061,-0.207537 0,-0.114146 0.32742,-0.403825 0.72761,-0.643731 1.04201,-0.624684 4.54943,-4.053025 5.89624,-5.763315 0.63027,-0.800365 1.27442,-1.574271 1.43146,-1.719792 0.15704,-0.145521 0.43364,-0.56224 0.61469,-0.926042 0.18104,-0.363802 0.62421,-1.137708 0.98483,-1.719791 1.18827,-1.918034 2.51867,-4.934255 3.07927,-6.98118 1.56483,-5.713717 1.58597,-5.848988 1.61756,-10.349029 0.017,-2.417464 -0.10857,-5.074047 -0.28132,-5.953125 -0.55215,-2.809669 -2.12882,-7.233346 -3.51752,-9.869136 -2.10334,-3.992192 -3.65199,-6.056024 -7.16075,-9.542899 -4.01494,-3.989885 -7.861731,-6.504294 -12.721503,-8.315259 -4.595246,-1.712389 -8.505803,-2.628516 -13.29244,-3.114021 -5.59094,-0.567085 -13.809372,0.150238 -17.001298,1.48391 -0.51622,0.215691 -1.283694,0.452967 -1.705498,0.527277 -0.421804,0.07431 -0.969235,0.242883 -1.216518,0.3746 -0.247282,0.13172 -0.985385,0.472633 -1.640228,0.757587 -4.407247,1.917801 -5.305373,2.367227 -6.537085,3.271197 -0.75774,0.556115 -1.443381,1.011119 -1.523645,1.011119 -0.36395,0 -2.500905,1.752957 -4.595945,3.770079 -4.531749,4.36321 -5.84739,6.199159 -8.769175,12.237213 -0.901198,1.86238 -1.288754,3.154553 -2.404394,8.016634 -0.415856,1.812343 -0.258402,8.640199 0.245282,10.636491 l 0.43392,1.719791 2.017691,0.164058 c 2.812058,0.228645 4.290965,1.063919 5.604603,3.165427 1.329354,2.126652 1.873853,4.324462 1.698789,6.856974 -0.230857,3.33964 -0.945005,4.54057 -4.475901,7.526814 -0.245568,0.207687 -0.484931,0.262273 -0.531921,0.121303 -0.05277,-0.158297 -0.691438,-0.119171 -1.670182,0.102323 -1.568421,0.354941 -1.586109,0.369334 -1.717038,1.397328 -0.171336,1.345247 0.150292,4.795784 0.655535,7.032789 0.218723,0.968422 0.464706,2.218582 0.546629,2.778122 0.191143,1.30554 1.364491,4.940605 2.036469,6.309025 0.705559,1.43681 3.078808,3.83646 3.794252,3.83646 0.312769,0 0.857313,0.22704 1.210103,0.50455 1.043369,0.82071 4.699069,1.86069 9.748679,2.77332 0.363802,0.0658 3.399896,0.0822 6.746875,0.0365 4.74426,-0.0647 6.755996,-0.20483 9.128125,-0.63566 z" />
    <path
       style="fill:#000000;stroke-width:0.264583"
       d="m 83.419241,84.406872 c -1.093329,-0.412694 -2.561526,-1.42481 -3.647622,-2.514523 -1.012359,-1.015733 -1.931342,-4.622581 -1.749171,-6.865205 0.293767,-3.616428 1.645724,-5.952659 4.419857,-7.637671 1.280127,-0.777553 4.695033,-0.798621 6.41103,-0.03955 1.504178,0.665369 3.224552,2.522852 4.126934,4.455837 0.943877,2.021869 1.134796,5.715794 0.401728,7.772641 -0.595186,1.669974 -2.585779,3.760923 -4.303975,4.520962 -1.518451,0.671685 -4.294359,0.822534 -5.658781,0.307512 z"
       id="path933" />
    <path
       style="fill:#000000;stroke-width:0.264583"
       d="m 48.029675,98.133745 c -1.32752,-0.16048 -1.91838,-1.18792 -1.593196,-2.770382 0.357852,-1.741429 1.288251,-4.022786 1.792457,-4.395142 0.485777,-0.358743 1.370298,-0.428982 2.061599,-0.163705 0.735541,0.282254 1.990029,3.288762 1.983385,4.75339 -0.01035,2.283699 -1.115031,2.954129 -4.244245,2.575839 z"
       id="path931" />
    <path
       style="fill:#000000;stroke-width:0.264583"
       d="m 70.211977,98.162145 c -1.017606,-0.55162 -1.263422,-1.15951 -1.263422,-3.124386 0,-2.863501 0.822187,-4.13566 2.672852,-4.13566 0.84033,0 1.121836,0.153985 1.723454,0.942748 0.636045,0.8339 0.721609,1.184449 0.741069,3.036165 0.01998,1.901251 -0.03872,2.152023 -0.639459,2.731793 -0.850018,0.82034 -2.284965,1.06406 -3.234494,0.54934 z"
       id="path929" />
    <path
       style="fill:#ffffff;stroke-width:0.264583"
       d="m 73.513861,172.10959 c 0.945332,-0.2362 3.091405,-1.02127 5.802492,-2.12264 0.681821,-0.27698 1.470954,-0.50361 1.753627,-0.50361 0.505071,0 1.473015,-0.35586 3.672913,-1.35032 0.610478,-0.27597 1.235781,-0.50176 1.389557,-0.50176 0.425289,0 4.808723,-1.55056 5.143913,-1.81956 0.161737,-0.1298 0.710309,-0.32518 1.219047,-0.43416 0.508741,-0.10899 1.282647,-0.34967 1.719791,-0.53485 0.437148,-0.18517 2.283093,-0.8669 4.102103,-1.51494 3.582976,-1.27647 4.033256,-1.43452 7.408336,-2.6003 1.23693,-0.42724 2.72521,-0.99841 3.30729,-1.26926 0.58208,-0.27085 1.47505,-0.57772 1.98437,-0.68195 0.50933,-0.10422 2.23573,-0.66666 3.83646,-1.24988 1.60073,-0.58321 3.56527,-1.27577 4.36563,-1.53902 0.80037,-0.26325 3.00302,-1.03403 4.89479,-1.71285 1.89177,-0.67882 3.91584,-1.35118 4.49792,-1.49415 0.58208,-0.14296 1.32203,-0.43187 1.64434,-0.64201 0.3223,-0.21014 0.75301,-0.38207 0.95715,-0.38207 0.40309,0 3.96522,-1.16781 6.92351,-2.2698 1.01865,-0.37946 2.4474,-0.84108 3.175,-1.02582 0.7276,-0.18474 2.39448,-0.71795 3.70417,-1.1849 1.30968,-0.46695 2.94679,-1.02369 3.63802,-1.2372 0.69122,-0.21351 1.25677,-0.47301 1.25677,-0.57666 0,-0.10366 -1.31422,-0.64997 -2.92049,-1.21403 -1.60627,-0.56406 -3.36244,-1.2543 -3.9026,-1.53386 -0.54017,-0.27955 -1.6965,-0.75118 -2.56962,-1.04804 -0.87313,-0.29687 -2.89719,-1.11723 -4.49792,-1.82301 -1.60073,-0.70579 -3.2676,-1.36501 -3.70416,-1.46496 -0.71232,-0.16306 -1.66407,-0.53595 -5.68855,-2.22871 -0.65484,-0.27543 -3.21468,-1.29573 -5.68854,-2.26732 -2.47385,-0.97159 -5.45042,-2.16163 -6.61458,-2.64454 -1.16417,-0.48291 -2.45873,-0.96186 -2.8768,-1.06434 -0.41807,-0.10249 -1.66823,-0.56697 -2.77812,-1.03218 -4.5039,-1.88781 -7.68402,-3.10859 -12.389773,-4.75618 -1.33885,-0.46876 -2.589007,-0.97513 -2.778125,-1.12527 -0.189119,-0.15014 -1.355884,-0.60632 -2.592811,-1.01372 -1.236927,-0.4074 -2.903802,-1.00958 -3.704167,-1.33817 -4.035669,-1.65687 -8.422303,-2.8908 -11.244791,-3.1631 -1.018646,-0.0983 -1.897504,-0.22069 -1.953016,-0.27204 -0.05551,-0.0513 -0.3077,0.0173 -0.560414,0.15254 -0.30584,0.16368 -0.418801,0.4587 -0.337828,0.88228 0.119216,0.62364 0.07748,0.6388 -2.08542,0.75772 -1.898557,0.10438 -2.465964,0.25724 -4.059155,1.09357 -1.018646,0.53473 -2.566459,1.09472 -3.439584,1.24443 -2.253816,0.38644 -6.30111,1.36431 -6.614583,1.59816 -0.145521,0.10856 -0.740833,0.28391 -1.322917,0.38968 -1.200928,0.2182 -14.111819,3.49116 -17.727083,4.49387 -1.309688,0.36325 -3.155157,0.82618 -4.101042,1.02872 -4.762722,1.01986 -8.202084,1.98081 -8.202084,2.29165 0,0.1176 0.68461,0.76954 1.521355,1.44876 0.836745,0.67921 1.614895,1.39714 1.729224,1.59539 0.114329,0.19826 0.976572,0.90901 1.916099,1.57944 0.939525,0.67043 1.917544,1.48273 2.173378,1.80511 0.255833,0.32237 1.179528,1.16519 2.052653,1.87293 0.873125,0.70774 2.06375,1.72952 2.645833,2.27064 0.582084,0.54111 2.368021,2.14313 3.96875,3.56004 1.60073,1.41692 3.803386,3.39316 4.894792,4.39164 1.091406,0.99849 3.408741,3.09802 5.149631,4.66563 3.029431,2.72789 6.755254,6.17314 9.491263,8.77652 0.703688,0.66958 1.392486,1.42578 1.530662,1.68044 0.138176,0.25466 0.395867,0.46415 0.572648,0.46552 0.176782,0.001 1.392984,1.03051 2.702671,2.28696 3.880472,3.72274 5.417506,4.92153 6.057937,4.72478 0.306155,-0.0941 1.003692,-0.28271 1.550078,-0.41924 z"
       id="path915" />
    <g
       id="g3884"
       transform="matrix(0.26458333,2.7305e-4,-2.7305e-4,0.26458333,-18.57654,-49.654276)"
       style="stroke-width:4.40315;stroke-miterlimit:4;stroke-dasharray:none">
      <ellipse
         id="path3202"
         style="opacity:0.89224;fill:#8f0000;stroke:#000000;stroke-width:4.6816;stroke-linejoin:round;stroke-miterlimit:4;stroke-dasharray:none"
         transform="matrix(0.38456,0.60266,-1.3835,0.1321,1022,543.21)"
         cx="103.03556"
         cy="512.68817"
         rx="21.213203"
         ry="21.465742" />
      <path
         id="path3204"
         inkscape:connector-curvature="0"
         sodipodi:nodetypes="cccc"
         style="opacity:0.89224;fill:#8f0000;fill-rule:evenodd;stroke:#000000;stroke-width:4.40315;stroke-linejoin:round;stroke-miterlimit:4;stroke-dasharray:none"
         d="m 337.3,684.34 14.41,30.738 14.736,-30.172 c -9.656,1.7526 -19.491,1.2519 -29.146,-0.56635 z" />
      <path
         id="path3206"
         inkscape:connector-curvature="0"
         sodipodi:nodetypes="cccc"
         style="opacity:0.89224;fill:#8f0000;fill-rule:evenodd;stroke:#000000;stroke-width:4.40315;stroke-linejoin:round;stroke-miterlimit:4;stroke-dasharray:none"
         d="m 351.21,717.1 3.0304,24.244 18.183,-27.527 c -5.7491,1.9756 -13.495,2.6202 -21.213,3.283 z" />
      <path
         id="path3208"
         inkscape:connector-curvature="0"
         sodipodi:nodetypes="cccc"
         style="fill:#d52020;fill-rule:evenodd;stroke:#000000;stroke-width:4.40315;stroke-linejoin:round;stroke-miterlimit:4;stroke-dasharray:none"
         d="m 351.57,716.99 1.9368,25.604 -23.765,-28.076 c 5.8203,1.755 14.09,2.1037 21.828,2.4717 z" />
      <path
         id="path3210"
         inkscape:connector-curvature="0"
         sodipodi:nodetypes="cccc"
         style="opacity:0.89224;fill:#990000;fill-rule:evenodd;stroke:#000000;stroke-width:4.40315;stroke-linejoin:round;stroke-miterlimit:4;stroke-dasharray:none"
         d="m 352.22,716.09 14.708,-30.978 22.162,22.139 c -7.2914,2.9873 -24.295,11.287 -36.871,8.8388 z" />
      <path
         id="path3212"
         inkscape:connector-curvature="0"
         sodipodi:nodetypes="cccc"
         style="opacity:0.89224;fill:#be0e09;fill-rule:evenodd;stroke:#000000;stroke-width:4.40315;stroke-linejoin:round;stroke-miterlimit:4;stroke-dasharray:none"
         d="m 367.02,684.7 c 10.714,-1.9565 14.915,-5.523 16.607,-10.804 l 5.625,32.679 z" />
      <path
         id="path3214"
         inkscape:connector-curvature="0"
         sodipodi:nodetypes="ccscc"
         style="opacity:0.89224;fill:#8f0000;fill-rule:evenodd;stroke:#000000;stroke-width:4.40315;stroke-linejoin:round;stroke-miterlimit:4;stroke-dasharray:none"
         d="m 384.52,677.2 15.268,5.3571 c 1.1223,2.4926 3.329,7.5705 1.5178,12.232 -2.0858,5.3684 -6.2295,9.3309 -11.339,12.5 l -5.8929,-30.357" />
      <path
         id="path3216"
         inkscape:connector-curvature="0"
         sodipodi:nodetypes="cccc"
         style="opacity:0.80172;fill:#8f0000;fill-rule:evenodd;stroke:#000000;stroke-width:4.40315;stroke-linejoin:round;stroke-miterlimit:4;stroke-dasharray:none"
         d="m 381.4,668.45 c 1.4942,1.9758 2.074,3.9267 2.8571,8.0357 l 15.804,5.625 -18.661,-13.661 z" />
      <path
         id="path3218"
         inkscape:connector-curvature="0"
         sodipodi:nodetypes="cccc"
         style="opacity:0.89224;fill:#a60000;fill-rule:evenodd;stroke:#000000;stroke-width:4.40315;stroke-linejoin:round;stroke-miterlimit:4;stroke-dasharray:none"
         d="m 352.06,716.31 -14.53,-31.514 -28.412,19.996 c 4.8458,4.4483 30.366,13.966 42.942,11.517 z" />
      <path
         id="path3220"
         inkscape:connector-curvature="0"
         sodipodi:nodetypes="cccc"
         style="opacity:0.89224;fill:#8f0000;fill-rule:evenodd;stroke:#000000;stroke-width:4.40315;stroke-linejoin:round;stroke-miterlimit:4;stroke-dasharray:none"
         d="m 336.96,684.47 c -10.214,-3.7807 -14.985,-7.4845 -15.738,-12.978 l -11.887,32.526 27.624,-19.548 z" />
      <path
         id="path3222"
         inkscape:connector-curvature="0"
         sodipodi:nodetypes="cccc"
         style="opacity:0.89224;fill:#ad0f0f;fill-rule:evenodd;stroke:#000000;stroke-width:4.40315;stroke-linejoin:round;stroke-miterlimit:4;stroke-dasharray:none"
         d="m 322.88,668.14 -18.214,15.625 c -4.9649,10.529 3.3555,19.115 3.9286,20.71 l 14.286,-36.335 z" />
      <path
         id="path3224"
         inkscape:connector-curvature="0"
         sodipodi:nodetypes="cccc"
         style="opacity:0.89224;fill:#8f0000;fill-rule:evenodd;stroke:#000000;stroke-width:4.40315;stroke-linejoin:round;stroke-miterlimit:4;stroke-dasharray:none"
         d="m 308.38,704.78 45.253,38.404 -23.929,-29.286 c -8.2431,-1.9042 -14.479,-5.8156 -21.324,-9.118 z" />
      <path
         id="path3226"
         inkscape:connector-curvature="0"
         sodipodi:nodetypes="cccc"
         style="opacity:0.76724;fill:#990000;fill-rule:evenodd;stroke:#000000;stroke-width:4.40315;stroke-linejoin:round;stroke-miterlimit:4;stroke-dasharray:none"
         d="m 389.78,706.99 -36.513,36.724 18.929,-29.464 c 6.2875,-2.4686 11.951,-4.955 17.585,-7.2602 z" />
    </g>
  </g>
</svg>
